# xmcd
#
# Track frame offsets:
#	150
#	10440
#	24361
#	36632
#	49921
#	62980
#	75988
#	89649
#	102167
#	113372
#	130731
#	144241
#	156713
#	171632
#	184036
#	194502
#	208255
#	219050
#	235399
#	248843
#
# Disc length: 3507 seconds
#
# Revision: 2
# Processed by: cddbd v1.5.1PL2 Copyright (c) Steve Scherf et al.
# Submitted via: audiograbber 1.83.01
#
DISCID=210db114
DTITLE=Lois Armstrong - 20 Golden Hits
DYEAR=1900
DGENRE=
TTITLE0=Skokiaan
TTITLE1=That Lucky Old Sun#
TTITLE2=Ko Ko Mo
TTITLE3=Rock My Soul
TTITLE4=Swing That Music
TTITLE5=Blueberry
TTITLE6=Pretty Little Missy
TTITLE7=Ramona
TTITLE8=Our Monday Date
TTITLE9=Bassin Street Blues
TTITLE10=You Rascal You
TTITLE11=Shadrack
TTITLE12=The Gipsy
TTITLE13=When The Saints Go Marchin In
TTITLE14=In the Shade Of the Old Apple Tree
TTITLE15=Cest Si Bon
TTITLE16=Hello Dolly
TTITLE17=Go Down Moses
TTITLE18=The Flat Foot Floogree
TTITLE19=Down By The Riverside
EXTD=Schallplatte
EXTT0=
EXTT1=
EXTT2=
EXTT3=
EXTT4=
EXTT5=
EXTT6=
EXTT7=
EXTT8=
EXTT9=
EXTT10=
EXTT11=
EXTT12=
EXTT13=
EXTT14=
EXTT15=
EXTT16=
EXTT17=
EXTT18=
EXTT19=
PLAYORDER=
